<?xml version="1.0" encoding="utf-8"?>
<!-- Svg Vector Icons : http://www.onlinewebfonts.com/icon -->
<!DOCTYPE svg PUBLIC "-//W3C//DTD SVG 1.1//EN" "http://www.w3.org/Graphics/SVG/1.1/DTD/svg11.dtd">
<svg version="1.1" xmlns="http://www.w3.org/2000/svg" xmlns:xlink="http://www.w3.org/1999/xlink" x="0px" y="0px" viewBox="0 0 1000 1000" enable-background="new 0 0 1000 1000" xml:space="preserve">
<metadata> Svg Vector Icons : http://www.onlinewebfonts.com/icon </metadata>
<g><path d="M508.8,937.5c0-5.8-2.9-8.7-8.8-8.7c-21.5,0-40-7.7-55.5-23.2c-15.5-15.5-23.2-34-23.2-55.5c0-5.8-2.9-8.8-8.7-8.8c-5.8,0-8.8,2.9-8.8,8.8c0,26.6,9.4,49.3,28.2,68.1c18.8,18.8,41.5,28.2,68.1,28.2C505.8,946.3,508.8,943.3,508.8,937.5z M955,780c0,19-6.9,35.4-20.8,49.2S904,850,885,850H640c0,38.6-13.7,71.6-41,99s-60.3,41-99,41c-38.6,0-71.6-13.7-99-41c-27.3-27.3-41-60.3-41-99H115c-19,0-35.4-6.9-49.2-20.8C51.9,815.4,45,799,45,780c18.2-15.3,34.8-31.4,49.8-48.1c14.9-16.8,30.4-38.6,46.5-65.4c16-26.8,29.6-55.7,40.7-86.7c11.1-31,20.2-68.5,27.3-112.7c7.1-44.1,10.7-91.5,10.7-142.2c0-55.4,21.3-106.9,64-154.5c42.7-47.6,98.6-76.5,167.9-86.7c-2.9-6.9-4.4-14-4.4-21.3c0-14.6,5.1-27,15.3-37.2C473,15.1,485.4,10,500,10c14.6,0,27,5.1,37.2,15.3c10.2,10.2,15.3,22.6,15.3,37.2c0,7.3-1.5,14.4-4.4,21.3C617.4,94,673.4,122.9,716,170.5c42.7,47.6,64,99.1,64,154.5c0,50.7,3.6,98.1,10.7,142.2c7.1,44.1,16.2,81.7,27.3,112.7c11.1,31,24.7,59.9,40.7,86.7c16,26.8,31.5,48.6,46.5,65.4C920.2,748.6,936.8,764.7,955,780L955,780z"/></g>
</svg>